# xmcd
# 
# Track frame offsets:
#     150
#     15610
#     28672
#     43287
#     62790
#     77282
#     93730
#     109672
#     120497
#     134950
#     149515
#     165062
#     177662
#     191987
#     206565
#     219137
#     234562
#     247767
# 
# Disc length: 3534
# 
# Revision: 0
# Processed by: cddbd v1.5.2PL0 Copyright (c) Steve Scherf et al.
# Submitted via: fre:ac v1.1beta1pre4
# 
DISCID=fe0dcc12
DTITLE=Cosy Sheridan - Quietly Led
DYEAR=2003
DGENRE=Folk
TTITLE0=Quietly Led
TTITLE1=Too Much Time
TTITLE2=The Losing Game
TTITLE3=I'd Fall For You
TTITLE4=Love's Lullaby
TTITLE5=Sharp Objects
TTITLE6=Not Like You
TTITLE7=Therapy
TTITLE8=Highway Jerry Wants a Downtown Address
TTITLE9=Lullabies
TTITLE10=Masterpiece
TTITLE11=Streetlights
TTITLE12=Late Bloomer
TTITLE13=The Bering Sea
TTITLE14=Highwire
TTITLE15=Dead End
TTITLE16=Waltz for Arizona
TTITLE17=Waltz for Arizona
EXTD=
EXTT0=
EXTT1=
EXTT2=
EXTT3=
EXTT4=
EXTT5=
EXTT6=
EXTT7=
EXTT8=
EXTT9=
EXTT10=
EXTT11=
EXTT12=
EXTT13=
EXTT14=
EXTT15=
EXTT16=
EXTT17=
PLAYORDER=
